<?xml version="1.0" encoding="iso-8859-1"?>
<!-- Uploaded to: SVG Repo, www.svgrepo.com, Generator: SVG Repo Mixer Tools -->
<svg height="800px" width="800px" version="1.1" id="Layer_1" xmlns="http://www.w3.org/2000/svg" xmlns:xlink="http://www.w3.org/1999/xlink" 
	 viewBox="0 0 511.67 511.67" xml:space="preserve">
<path style="fill:#AC92EB;" d="M351.773,490.338c-39.864,0-77.341-15.521-105.526-43.69
	c-28.185-28.201-43.707-65.677-43.707-105.526c0-39.881,15.521-77.349,43.707-105.534c28.185-28.185,65.662-43.706,105.526-43.706
	c39.865,0,77.341,15.521,105.526,43.706c28.186,28.186,43.707,65.653,43.707,105.534c0,39.85-15.521,77.325-43.707,105.526
	C429.114,474.816,391.639,490.338,351.773,490.338z"/>
<path style="fill:#967ADC;" d="M351.773,181.215c-88.303,0-159.897,71.579-159.897,159.905c0,88.287,71.595,159.897,159.897,159.897
	c88.304,0,159.897-71.61,159.897-159.897C511.671,252.794,440.077,181.215,351.773,181.215z M466.122,262.803
	c4.014,5.841,7.59,11.985,10.666,18.418c-5.045,2.687-11.354,0.906-14.242-4.06C459.673,272.165,461.298,265.833,466.122,262.803z
	 M362.407,202.936c-0.203,5.684-4.887,10.259-10.634,10.259c-5.746,0-10.431-4.575-10.634-10.259
	c3.514-0.265,7.059-0.406,10.634-0.406C355.35,202.529,358.894,202.671,362.407,202.936z M237.425,419.415
	c-4.013-5.841-7.589-11.992-10.665-18.426c5.044-2.687,11.353-0.906,14.241,4.091C243.858,410.046,242.25,416.385,237.425,419.415z
	 M341.14,479.282c0.203-5.684,4.888-10.243,10.634-10.243c5.747,0,10.431,4.56,10.634,10.243c-3.514,0.281-7.058,0.406-10.634,0.406
	C348.198,479.689,344.653,479.564,341.14,479.282z M405.708,468.82c-7.215,3.029-14.615,5.435-22.174,7.215
	c-1.811-15.928-15.334-28.326-31.761-28.326s-29.949,12.398-31.761,28.326c-7.558-1.78-14.959-4.186-22.174-7.215
	c-16.504-6.995-31.323-16.989-44.049-29.73c-1-1-1.983-1.999-2.951-3.029c12.867-9.557,16.817-27.451,8.62-41.661
	c-8.214-14.21-25.703-19.737-40.412-13.335c-3.888-12.867-5.856-26.265-5.856-39.943c0-18.738,3.669-36.883,10.884-53.935
	c6.98-16.513,16.974-31.331,29.715-44.058c12.726-12.742,27.545-22.735,44.049-29.715c7.215-3.045,14.616-5.45,22.174-7.23
	c1.812,15.943,15.334,28.326,31.761,28.326s29.95-12.383,31.761-28.326c7.559,1.78,14.959,4.185,22.174,7.23
	c16.505,6.979,31.324,16.973,44.05,29.715c0.999,1,1.983,2.015,2.951,3.029c-12.882,9.557-16.817,27.443-8.62,41.653
	c8.215,14.241,25.703,19.737,40.412,13.335c3.889,12.898,5.855,26.265,5.855,39.975c0,13.679-1.967,27.076-5.855,39.943
	c-14.709-6.402-32.197-0.875-40.412,13.335c-8.197,14.21-4.262,32.104,8.62,41.661c-0.968,1.03-1.952,2.029-2.951,3.029
	C437.032,451.831,422.213,461.825,405.708,468.82z M462.546,405.079c2.889-4.997,9.197-6.777,14.242-4.091
	c-3.076,6.434-6.652,12.585-10.666,18.426C461.298,416.385,459.673,410.046,462.546,405.079z"/>
<path style="fill:#F5F7FA;" d="M426.397,341.121c0,41.192-33.416,74.608-74.624,74.608c-41.208,0-74.624-33.416-74.624-74.608
	c0-41.224,33.416-74.632,74.624-74.632C392.981,266.489,426.397,299.898,426.397,341.121z"/>
<g>
	<path style="fill:#967ADC;" d="M346.448,246.595c-5.105,2.951-6.854,9.463-3.902,14.568c2.936,5.091,9.462,6.84,14.553,3.904
		c5.105-2.951,6.855-9.463,3.903-14.569C358.066,245.408,351.54,243.66,346.448,246.595z"/>
	<path style="fill:#967ADC;" d="M346.448,417.165c-5.105,2.936-6.854,9.463-3.902,14.554c2.936,5.09,9.462,6.839,14.553,3.903
		c5.105-2.936,6.855-9.463,3.903-14.553C358.066,415.948,351.54,414.23,346.448,417.165z"/>
	<path style="fill:#967ADC;" d="M303.804,276.506c5.107,2.936,11.618,1.188,14.569-3.903c2.936-5.114,1.187-11.626-3.903-14.577
		c-5.106-2.935-11.617-1.202-14.569,3.904C296.965,267.035,298.698,273.539,303.804,276.506z"/>
	<path style="fill:#967ADC;" d="M399.743,405.736c-5.106-2.936-11.617-1.188-14.568,3.903c-2.936,5.091-1.188,11.617,3.903,14.554
		c5.106,2.936,11.617,1.218,14.568-3.904C406.583,415.198,404.849,408.672,399.743,405.736z"/>
	<path style="fill:#967ADC;" d="M277.915,287.812c-5.887,0-10.65,4.778-10.65,10.649c0,5.902,4.764,10.681,10.65,10.681
		s10.664-4.778,10.664-10.681C288.579,292.59,283.802,287.812,277.915,287.812z"/>
	<path style="fill:#967ADC;" d="M425.633,373.101c-5.888,0-10.665,4.778-10.665,10.649c0,5.902,4.777,10.649,10.665,10.649
		c5.887,0,10.649-4.747,10.649-10.649C436.282,377.879,431.52,373.101,425.633,373.101z"/>
	<path style="fill:#967ADC;" d="M275.729,335.781c-2.951-5.091-9.462-6.84-14.569-3.904c-5.09,2.936-6.839,9.463-3.903,14.553
		c2.952,5.122,9.463,6.871,14.569,3.904C276.931,347.398,278.664,340.871,275.729,335.781z"/>
	<path style="fill:#967ADC;" d="M446.292,335.781c-2.952-5.091-9.463-6.84-14.569-3.904c-5.091,2.936-6.839,9.463-3.903,14.553
		c2.951,5.122,9.462,6.871,14.568,3.904C447.478,347.398,449.228,340.871,446.292,335.781z"/>
	<path style="fill:#967ADC;" d="M283.255,374.506c-5.105-2.936-11.617-1.187-14.568,3.904c-2.936,5.121-1.203,11.617,3.903,14.584
		c5.091,2.936,11.618,1.187,14.569-3.903C290.095,384,288.346,377.473,283.255,374.506z"/>
	<path style="fill:#967ADC;" d="M420.292,307.704c5.106,2.936,11.617,1.187,14.569-3.904c2.936-5.09,1.202-11.617-3.903-14.553
		c-5.107-2.936-11.618-1.187-14.569,3.904C413.453,298.242,415.202,304.77,420.292,307.704z"/>
	<path style="fill:#967ADC;" d="M309.129,404.299c-5.887,0-10.649,4.777-10.649,10.681c0,5.871,4.763,10.649,10.649,10.649
		c5.888,0,10.665-4.778,10.665-10.649C319.794,409.077,315.017,404.299,309.129,404.299z"/>
	<path style="fill:#967ADC;" d="M394.419,256.605c-5.888,0-10.666,4.762-10.666,10.649c0,5.879,4.778,10.658,10.666,10.658
		c5.887,0,10.648-4.779,10.648-10.658C405.067,261.367,400.306,256.605,394.419,256.605z"/>
</g>
<path style="fill:#ED5564;" d="M159.897,319.79c-39.865,0-77.341-15.521-105.526-43.722
	c-28.186-28.177-43.707-65.653-43.707-105.518S26.185,93.209,54.37,65.023s65.661-43.706,105.526-43.706
	s77.341,15.521,105.526,43.706c28.186,28.185,43.706,65.661,43.706,105.526s-15.521,77.341-43.706,105.519
	C237.238,304.27,199.762,319.79,159.897,319.79z"/>
<path style="fill:#DA4453;" d="M159.897,10.652C71.594,10.652,0,82.247,0,170.549c0,88.318,71.595,159.89,159.897,159.89
	s159.897-71.571,159.897-159.89C319.794,82.247,248.199,10.652,159.897,10.652z M274.245,92.24
	c4.014,5.855,7.589,11.992,10.665,18.426c-5.044,2.686-11.353,0.906-14.241-4.075C267.796,101.625,269.42,95.27,274.245,92.24z
	 M159.897,31.982c3.576,0,7.121,0.125,10.634,0.39c-0.203,5.7-4.887,10.259-10.634,10.259c-5.746,0-10.431-4.56-10.634-10.259
	C152.776,32.107,156.321,31.982,159.897,31.982z M45.548,92.24c4.825,3.029,6.434,9.385,3.576,14.351
	c-2.889,4.981-9.197,6.761-14.241,4.075C37.959,104.232,41.519,98.096,45.548,92.24z M45.548,248.859
	c-4.013-5.84-7.589-11.993-10.665-18.426c5.043-2.67,11.352-0.906,14.241,4.076C51.981,239.49,50.373,245.83,45.548,248.859z
	 M159.897,309.142c-3.576,0-7.121-0.156-10.634-0.406c0.203-5.684,4.888-10.274,10.634-10.274c5.747,0,10.431,4.591,10.634,10.274
	C167.017,308.984,163.472,309.142,159.897,309.142z M213.831,298.242c-7.214,3.061-14.615,5.465-22.173,7.245
	c-1.811-15.958-15.333-28.325-31.761-28.325c-16.427,0-29.95,12.367-31.761,28.325c-7.558-1.78-14.959-4.185-22.173-7.245
	c-16.505-6.964-31.324-16.958-44.05-29.691c-1-1-1.983-2.03-2.952-3.045c12.867-9.557,16.817-27.436,8.62-41.646
	c-8.213-14.241-25.702-19.753-40.412-13.351c-3.888-12.882-5.855-26.264-5.855-39.958s1.967-27.077,5.855-39.943
	c14.709,6.387,32.198,0.875,40.412-13.351c8.198-14.21,4.248-32.104-8.62-41.646c0.968-1.03,1.952-2.045,2.952-3.045
	c12.726-12.742,27.544-22.735,44.05-29.715c7.214-3.045,14.616-5.45,22.173-7.23c1.811,15.943,15.334,28.342,31.761,28.342
	s29.95-12.398,31.761-28.342c7.558,1.78,14.959,4.185,22.173,7.23c16.505,6.98,31.324,16.974,44.05,29.715
	c0.999,1,1.983,2.015,2.951,3.045c-12.882,9.541-16.817,27.436-8.62,41.646c8.213,14.225,25.703,19.737,40.412,13.351
	c3.889,12.867,5.855,26.249,5.855,39.943s-1.967,27.076-5.855,39.958c-14.709-6.402-32.198-0.89-40.412,13.351
	c-8.198,14.209-4.263,32.089,8.62,41.646c-0.968,1.015-1.952,2.029-2.951,3.045C245.154,281.284,230.336,291.277,213.831,298.242z
	 M270.669,234.509c2.889-4.981,9.197-6.746,14.241-4.076c-3.076,6.433-6.651,12.585-10.665,18.426
	C269.42,245.83,267.796,239.49,270.669,234.509z"/>
<g>
	<path style="fill:#FFCE54;" d="M234.521,170.55c0,41.208-33.416,74.624-74.624,74.624s-74.624-33.416-74.624-74.624
		s33.416-74.608,74.624-74.608S234.521,129.342,234.521,170.55z"/>
	<path style="fill:#FFCE54;" d="M42.644,170.55c0,5.887-4.778,10.665-10.665,10.665s-10.665-4.778-10.665-10.665
		s4.778-10.649,10.665-10.649S42.644,164.663,42.644,170.55z"/>
	<path style="fill:#FFCE54;" d="M298.48,170.55c0,5.887-4.777,10.665-10.665,10.665c-5.887,0-10.665-4.778-10.665-10.665
		s4.778-10.649,10.665-10.649C293.702,159.9,298.48,164.663,298.48,170.55z"/>
	<path style="fill:#FFCE54;" d="M101.262,272.103c5.106,2.936,6.855,9.463,3.904,14.554c-2.936,5.121-9.463,6.839-14.553,3.903
		c-5.106-2.936-6.855-9.463-3.904-14.553C89.645,270.908,96.172,269.159,101.262,272.103z"/>
	<path style="fill:#FFCE54;" d="M229.18,50.533c5.106,2.951,6.855,9.462,3.904,14.569c-2.936,5.106-9.462,6.839-14.553,3.904
		c-5.106-2.952-6.855-9.463-3.904-14.569C217.563,49.346,224.09,47.597,229.18,50.533z"/>
	<path style="fill:#FFCE54;" d="M218.531,272.103c5.091-2.943,11.618-1.194,14.553,3.904c2.951,5.09,1.203,11.617-3.904,14.553
		c-5.09,2.936-11.618,1.218-14.553-3.903C211.676,281.565,213.425,275.038,218.531,272.103z"/>
	<path style="fill:#FFCE54;" d="M90.613,50.533c5.09-2.936,11.618-1.187,14.553,3.904c2.951,5.106,1.202,11.617-3.904,14.569
		c-5.09,2.936-11.618,1.202-14.553-3.904C83.758,59.995,85.507,53.484,90.613,50.533z"/>
</g>
<g>
	<path style="fill:#434A54;" d="M351.773,309.142c-5.887,0-10.665,4.778-10.665,10.649v42.629c0,5.902,4.778,10.681,10.665,10.681
		c5.888,0,10.665-4.778,10.665-10.681V319.79C362.439,313.92,357.661,309.142,351.773,309.142z"/>
	<path style="fill:#434A54;" d="M159.897,138.57c-5.887,0-10.665,4.778-10.665,10.665v42.629c0,5.887,4.778,10.665,10.665,10.665
		s10.665-4.778,10.665-10.665v-42.629C170.562,143.35,165.783,138.57,159.897,138.57z"/>
</g>
</svg>